<svg width="32" height="32" viewBox="0 0 32 32" fill="none" xmlns="http://www.w3.org/2000/svg">
<circle cx="16" cy="16" r="14.5" fill="white" stroke="#EEEEF0" stroke-width="3"/>
<path d="M14 7.5L2.5 21L6.5 24H22L28 18L14 7.5Z" fill="#FFA808" stroke="black"/>
<rect x="8.30347" y="21.6925" width="19" height="1" fill="black"/>
<path d="M6.30347 16.6925H12.3035V22.6925H7.16061L6.30347 21.1925V16.6925Z" fill="black"/>
<path d="M11.1065 16.1925H11.4058H12.3035H11.705L12.3035 16.6925H10.508L10.8073 16.4425L11.1065 16.1925Z" fill="black"/>
<path d="M6.96167 17.6925H11.3035V19.1925L6.96167 19.6925V17.6925Z" fill="#FFA808"/>
<path d="M8.30347 22.6925H10.3035V23.1925V23.6925H8.30347C8.30347 23.302 8.30347 23.1925 8.30347 22.6925Z" fill="black"/>
<path d="M23.3035 22.6925H25.3035V23.1925V23.6925H23.3035C23.3035 23.302 23.3035 23.1925 23.3035 22.6925Z" fill="black"/>
<path d="M21.3035 22.6925H23.3035L22.8035 23.6925H21.3035C21.3035 23.302 21.3035 23.1925 21.3035 22.6925Z" fill="black"/>
<path d="M14.3035 20.6925H15.3035L15.8035 21.6925H14.3035V20.6925Z" fill="black"/>
<path d="M13.8035 20.1925L15.6546 19.4353L16.0332 20.3609L14.1821 21.1181L13.8035 20.1925Z" fill="black"/>
<path d="M16.0735 21.9482L14.8952 16.2897C14.8952 16.2897 16.5495 15.5842 17.2245 15.4056C17.896 15.228 18.8358 14.7561 18.8358 14.7561L16.0735 21.9482Z" fill="black"/>
<path d="M28.2066 12.8265L30.1675 18.6804C30.1675 18.6804 28.1307 19.5902 27.2905 19.8461C26.4548 20.1006 25.3035 20.6925 25.3035 20.6925L28.2066 12.8265Z" fill="black"/>
<path d="M19.9257 14.4751L21.4608 14.0587L18.8882 21.7314L17.2567 21.7019L19.9257 14.4751Z" fill="black"/>
<path d="M22.8681 13.8944L24.3923 13.5092L21.79 21.2317L19.8037 21.6924L22.8681 13.8944Z" fill="black"/>
<path d="M25.4401 13.3944L26.9643 13.0093L24.362 20.7318L22.3757 21.1925L25.4401 13.3944Z" fill="black"/>
<path d="M6.30347 23.6925H22.3035V24.1925H14.3035H6.30347V23.6925Z" fill="black"/>
<path d="M21.7036 24.1248L28.1893 18.0509L28.7138 18.3793L25.471 21.4163L22.3035 24.1925L21.7036 24.1248Z" fill="black"/>
<path d="M2.00008 20.7646L13.8837 7.12051L14.2608 7.4489L8.31895 14.2709L2.37712 21.0929L2.00008 20.7646Z" fill="black"/>
<path d="M27.7495 18.7659L13.6804 7.38869L13.9948 6.9999L21.0293 12.6885L28.0639 18.3771L27.7495 18.7659Z" fill="black"/>
<path d="M2.60449 20.6925L6.73175 23.8042L6.43075 24.2035L4.36712 22.6476L2.30349 21.0917L2.60449 20.6925Z" fill="black"/>
</svg>
